<?xml version="1.0" standalone="no"?>
<!DOCTYPE svg PUBLIC "-//W3C//DTD SVG 1.1//EN" "http://www.w3.org/Graphics/SVG/1.1/DTD/svg11.dtd" >
<svg xmlns="http://www.w3.org/2000/svg">
<metadata>
This is a custom SVG webfont generated by Font Squirrel.
Copyright   : version 11a copyright  Ben Weiner 2000
</metadata>
<defs>
<font id="webfontDSIesVhq" horiz-adv-x="962" >
<font-face units-per-em="2048" ascent="1638" descent="-410" />
<missing-glyph horiz-adv-x="409" />
<glyph unicode=" "  horiz-adv-x="409" />
<glyph unicode="&#x09;" horiz-adv-x="409" />
<glyph unicode="&#xa0;" horiz-adv-x="409" />
<glyph unicode="!" horiz-adv-x="479" d="M57 0h152l41 266h-152zM129 451l152 2l141 899h-152z" />
<glyph unicode="&#x22;" horiz-adv-x="438" d="M10 963h152l61 389h-151zM215 963h152l61 389h-152z" />
<glyph unicode="#" horiz-adv-x="839" d="M43 678l23 141h124l27 166h-125l23 141h123l22 146h162l-23 -146h125l23 146h162l-23 -146h105l-23 -141h-104l-27 -166h104l-22 -141h-103l-16 -105h-162l17 105h-125l-17 -105h-161l16 105h-125zM350 819h127l27 166h-127z" />
<glyph unicode="$" d="M88 0l35 225h151l-12 -75h92l37 225l-239 35l77 491h244l37 225h143l-37 -225h248l-39 -246h-151l16 97h-96l-37 -232l238 -35l-76 -483h-244l-26 -166h-144l27 164h-244zM336 553l82 -12l33 211h-84zM498 150h88l30 190l-86 12z" />
<glyph unicode="%" horiz-adv-x="1077" d="M33 8l119 -76l860 1170l-119 76zM68 717l65 418h381l-65 -418h-381zM197 803h153l39 244l-153 -3zM567 0l66 418h381l-66 -418h-381zM698 86h154l37 242h-154z" />
<glyph unicode="&#x26;" horiz-adv-x="1024" d="M74 0l102 655h143l78 492h340l-22 -143h-180l-56 -349h139l27 164h152l-27 -164h102l-22 -141h-102l-80 -514h-594zM258 154h283l55 358h-283z" />
<glyph unicode="'" horiz-adv-x="233" d="M10 963h152l61 389h-151z" />
<glyph unicode="(" horiz-adv-x="479" d="M39 -225l250 1577h293l-27 -164h-141l-197 -1249h141l-26 -164h-293z" />
<glyph unicode=")" horiz-adv-x="479" d="M39 -225h293l250 1577h-293l-27 -164h141l-196 -1249h-141z" />
<glyph unicode="*" horiz-adv-x="983" d="M-4 778l176 76l-147 109l102 122l129 -81l37 225h143l-37 -225l158 81l82 -129l-180 -102l151 -76l-125 -143l-127 102l-36 -225h-144l37 225l-160 -102z" />
<glyph unicode="+" horiz-adv-x="983" d="M45 410l23 143h348l55 348h164l-55 -348h368l-22 -143h-369l-65 -410h-164l65 410h-348z" />
<glyph unicode="," horiz-adv-x="479" d="M70 -164l168 410h151l-168 -410h-151z" />
<glyph unicode="-" horiz-adv-x="655" d="M39 410h553l24 143h-553z" />
<glyph unicode="." horiz-adv-x="479" d="M143 0h152l41 246h-152z" />
<glyph unicode="/" horiz-adv-x="479" d="M-131 -272l141 -33l600 1622l-141 33z" />
<glyph unicode="0" horiz-adv-x="1024" d="M123 0l143 901h635l-143 -901h-635zM305 143h324l96 611l-324 -2z" />
<glyph unicode="1" horiz-adv-x="1024" d="M264 758l23 141l497 2l-143 -901h-152l121 758h-346z" />
<glyph unicode="2" horiz-adv-x="1024" d="M127 2l25 156l534 395l31 199h-324l-26 -179h-152l51 328h635l-72 -450l-440 -301h393l-24 -150z" />
<glyph unicode="3" horiz-adv-x="1024" d="M123 0h635l82 512h-232l264 231l25 156l-631 2l-24 -149h393l-266 -240l-21 -121h309l-36 -241h-322l18 116h-151z" />
<glyph unicode="4" horiz-adv-x="1024" d="M98 2l25 156l569 743h160l-119 -751h123l-25 -150h-122l-33 -205h-160l33 205zM319 150h254l70 438z" />
<glyph unicode="5" horiz-adv-x="1024" d="M123 0h635l88 553h-459l31 190l459 2l24 154h-635l-82 -508h473l-36 -241h-322l18 116h-151z" />
<glyph unicode="6" horiz-adv-x="1024" d="M123 0l143 899h635l-24 -154l-484 -2l-31 -190h484l-88 -553h-635zM299 150h322l36 241h-321z" />
<glyph unicode="7" horiz-adv-x="1024" d="M227 2l222 -2l425 743l25 156h-631l-24 -156h454z" />
<glyph unicode="8" horiz-adv-x="1024" d="M123 2l143 899h635l-143 -901zM309 156l322 2l31 190h-322zM367 510h321l37 242h-322z" />
<glyph unicode="9" horiz-adv-x="1024" d="M123 2l24 154l484 2l31 190h-484l88 553h635l-143 -901zM367 510h321l37 242h-322z" />
<glyph unicode=":" horiz-adv-x="479" d="M92 0h152l39 246h-152zM197 655h151l39 246h-151z" />
<glyph unicode=";" horiz-adv-x="479" d="M18 -164l166 410h152l-166 -410h-152zM209 655h151l39 246h-151z" />
<glyph unicode="&#x3c;" horiz-adv-x="1024" d="M20 471l930 463l105 -135l-701 -328l598 -328l-149 -135z" />
<glyph unicode="=" horiz-adv-x="983" d="M20 246h881l23 143h-881zM59 492h881l23 143h-881z" />
<glyph unicode="&#x3e;" horiz-adv-x="1024" d="M-31 143l105 -135l930 463l-783 463l-149 -135l598 -328z" />
<glyph unicode="?" d="M240 1122l24 148h631l-111 -697h-270l-29 -184h-155l51 326h278l66 407h-485zM268 0h152l39 246h-152z" />
<glyph unicode="@" horiz-adv-x="1167" d="M68 -307l192 1208h840l-144 -901h-507l83 532h349l37 226h-519l-143 -905h678l-27 -160h-839zM618 147h201l39 238h-201z" />
<glyph unicode="A" d="M74 0l180 1147h635l-180 -1147h-160l80 512h-324l-80 -512h-151zM328 655h323l56 349h-324z" />
<glyph unicode="B" d="M74 0l180 1147h553l-74 -471h82l-106 -676h-635zM250 154h323l60 378h-324zM332 676h241l52 328h-242z" />
<glyph unicode="C" d="M74 0l180 1147h635l-51 -328h-152l29 178h-324l-135 -854h459l-23 -143h-618z" />
<glyph unicode="D" d="M74 0l180 1147h451l143 -266l-100 -635l-244 -246h-430zM250 156h262l47 49l119 737l-33 59h-262z" />
<glyph unicode="E" d="M74 0l180 1147l635 2l-23 -145h-483l-39 -248h483l-22 -144h-483l-72 -456h483l-24 -156h-635z" />
<glyph unicode="F" d="M74 0l180 1147l635 2l-23 -145h-483l-39 -248h483l-22 -144h-483l-97 -612h-151z" />
<glyph unicode="G" d="M74 0l180 1147h635l-23 -152h-475l-135 -852h322l73 473h-194l22 142h348l-118 -758h-635z" />
<glyph unicode="H" d="M74 0h151l97 614h323l-96 -614h160l180 1147h-160l-61 -389h-324l62 389h-152z" />
<glyph unicode="I" horiz-adv-x="649" d="M25 0l22 147h133l135 852h-145l23 148h434l-23 -148h-137l-135 -852h147l-22 -147h-432z" />
<glyph unicode="J" horiz-adv-x="460" d="M-115 -307l23 147h205l206 1307h154l-229 -1454h-359z" />
<glyph unicode="K" d="M74 0h151l80 512h31l199 -512h235l-305 604l465 543h-217l-385 -492l78 492h-152z" />
<glyph unicode="L" d="M74 0l180 1147l152 2l-156 -993h483l-24 -156h-635z" />
<glyph unicode="M" horiz-adv-x="1433" d="M74 0l180 1147h1106l-180 -1147h-160l158 1004h-312l-157 -1004h-164l157 1004h-319l-158 -1004h-151z" />
<glyph unicode="N" d="M74 0h151l113 717l250 -717h121l180 1147h-160l-100 -635l-230 637l-145 -2z" />
<glyph unicode="O" d="M74 0l180 1147h635l-180 -1147h-635zM250 156h323l134 845h-324z" />
<glyph unicode="P" horiz-adv-x="921" d="M74 0l180 1147h594l-100 -635h-443l-78 -512h-153zM328 655h282l56 349h-283z" />
<glyph unicode="Q" d="M98 0l181 1147h634l-180 -1147h-155l-50 -307h-151l49 307h-328zM274 156h324l133 848l-323 -3z" />
<glyph unicode="R" d="M74 0l180 1147h594l-100 -635h-177l199 -512h-201l-198 512h-66l-78 -512h-153zM328 655h282l56 349h-283z" />
<glyph unicode="S" d="M74 0l631 2l75 483l-428 273l39 239h324l-29 -178h152l51 328h-635l-84 -533l432 -274l-31 -190h-323l28 178h-151z" />
<glyph unicode="T" d="M229 999l23 148h637l-23 -148h-237l-158 -999h-152l158 999h-248z" />
<glyph unicode="U" d="M74 0l180 1147h152l-158 -1004h323l158 1004h160l-180 -1147h-635z" />
<glyph unicode="V" horiz-adv-x="901" d="M172 1147h193l-13 -983h58l299 983h200l-385 -1147h-327z" />
<glyph unicode="W" horiz-adv-x="1433" d="M74 0l180 1147h160l-158 -1004h311l158 1004h164l-158 -1004h320l157 1004h152l-180 -1147h-1106z" />
<glyph unicode="X" d="M-29 0l334 614l-133 533h213l86 -492h37l242 492h221l-301 -533l141 -614h-221l-105 512h-36l-265 -512h-213z" />
<glyph unicode="Y" d="M74 0l22 143h475l35 226h-471l123 778h148l-99 -631h324l98 631h160l-180 -1147h-635z" />
<glyph unicode="Z" d="M74 0l22 143l611 854h-476l23 150h635l-25 -156l-567 -848h418l-23 -143h-618z" />
<glyph unicode="[" horiz-adv-x="456" d="M-137 -389l274 1741h498l-25 -164h-346l-225 -1413h346l-25 -164h-497z" />
<glyph unicode="\" horiz-adv-x="479" d="M119 1317l153 33l88 -1622l-153 -33z" />
<glyph unicode="]" horiz-adv-x="456" d="M-178 -389h497l275 1741h-498l-24 -164h346l-225 -1413h-347z" />
<glyph unicode="^" d="M158 1081l323 279l234 -279l-127 -106l-139 184l-197 -184z" />
<glyph unicode="_" horiz-adv-x="983" d="M39 -225h881l24 143h-881z" />
<glyph unicode="`" d="M176 1229l129 123l367 -267l-129 -122z" />
<glyph unicode="a" d="M96 0l84 532h471l37 226h-475l23 143h634l-143 -901h-631zM268 147h324l37 238h-324z" />
<glyph unicode="b" d="M57 0l213 1352h152l-72 -451h484l-142 -901h-635zM231 147l324 3l96 608h-323z" />
<glyph unicode="c" d="M92 0l144 901h634l-51 -328h-151l26 179h-323l-97 -609h459l-22 -143h-619z" />
<glyph unicode="d" d="M57 0l142 901h483l72 451h151l-213 -1352h-635zM240 150l323 -3l96 611h-323z" />
<glyph unicode="e" d="M92 0l144 901h630l-84 -532h-471l-37 -226h476l-23 -143h-635zM334 516h323l37 238h-323z" />
<glyph unicode="f" d="M182 758l23 141h196l62 391h438l-22 -141h-287l-39 -250h287l-23 -141h-287l-120 -758h-152l121 758h-197z" />
<glyph unicode="g" d="M63 -369h635l201 1270h-631l-143 -901h471l-35 -225h-475zM297 147l96 607h324l-96 -607h-324z" />
<glyph unicode="h" d="M57 0h152l119 758h323l-119 -758h160l142 901h-484l72 451h-152z" />
<glyph unicode="i" horiz-adv-x="479" d="M57 0h152l141 901l-151 -2zM229 1085h152l41 267h-152z" />
<glyph unicode="j" horiz-adv-x="477" d="M-131 -307l25 151h161l166 1055h152l-191 -1206h-313zM252 1085l41 267h151l-41 -267h-151z" />
<glyph unicode="k" d="M57 0h152l61 395h31l217 -395h236l-326 467l446 432h-217l-366 -381l131 834h-152z" />
<glyph unicode="l" horiz-adv-x="479" d="M57 0h152l213 1352h-152z" />
<glyph unicode="m" horiz-adv-x="1433" d="M92 0l144 901h1105l-143 -901h-160l121 758h-311l-121 -758h-164l121 758h-319l-121 -758h-152z" />
<glyph unicode="n" d="M92 0h152l121 758h323l-121 -758h160l143 901h-634z" />
<glyph unicode="o" d="M92 0l144 901h634l-143 -901h-635zM274 143h324l96 611l-323 -2z" />
<glyph unicode="p" d="M57 -451h152l72 451h483l141 901h-635zM303 143l96 611l324 -2l-96 -609h-324z" />
<glyph unicode="q" d="M129 0l141 901h635l-213 -1352h-151l71 451h-483zM311 143h324l96 611l-323 -2z" />
<glyph unicode="r" horiz-adv-x="819" d="M92 0l144 901h532l-51 -328h-152l27 181l-221 -2l-119 -752h-160z" />
<glyph unicode="s" d="M92 0l631 2l74 463l-453 108l27 179h323l-26 -179h151l51 328h-634l-76 -471l458 -111l-26 -169h-324l13 75h-152z" />
<glyph unicode="t" horiz-adv-x="880" d="M190 758l25 143h184l41 266h152l-41 -266h217l-25 -143h-217l-96 -615h217l-22 -143h-369l119 758h-185z" />
<glyph unicode="u" d="M92 0l144 901h151l-121 -758h324l121 758h159l-143 -901h-635z" />
<glyph unicode="v" horiz-adv-x="901" d="M133 901h205l43 -758h57l285 758h188l-389 -901h-286z" />
<glyph unicode="w" horiz-adv-x="1433" d="M92 0l144 901h159l-121 -758h312l121 758h163l-120 -758h319l121 758h151l-143 -901h-1106z" />
<glyph unicode="x" d="M-10 0l334 471l-170 430h192l125 -369h37l244 369h200l-305 -430l182 -471h-200l-146 369h-37l-264 -369h-192z" />
<glyph unicode="y" d="M63 -369l23 144h475l35 225h-471l143 901h148l-119 -754h324l118 754h160l-201 -1270h-635z" />
<glyph unicode="z" d="M92 0l23 143l571 609h-475l25 149h634l-24 -156l-531 -602h418l-22 -143h-619z" />
<glyph unicode="{" horiz-adv-x="677" d="M-10 430l26 162h222l120 760h498l-27 -164h-346l-221 -1393h346l-26 -164h-498l127 799h-221z" />
<glyph unicode="|" horiz-adv-x="479" d="M33 -307h151l262 1659h-151z" />
<glyph unicode="}" horiz-adv-x="677" d="M-178 -369h497l127 799h222l26 162h-221l121 760h-498l-26 -164h346l-221 -1393h-347z" />
<glyph unicode="~" horiz-adv-x="1024" d="M53 420h150l35 217h200l-35 -217h508l58 368h-156l-33 -206h-190l33 206h-512z" />
<glyph unicode="&#xa1;" horiz-adv-x="479" d="M57 0h152l141 901l-151 -2zM229 1085h152l41 267h-152z" />
<glyph unicode="&#xa2;" d="M88 0l141 901h256l37 225h144l-37 -225h235l-51 -328h-151l28 179h-84l-96 -609h219l-22 -143h-220l-26 -164h-144l27 164h-256zM270 143h97l96 609h-96z" />
<glyph unicode="&#xa3;" d="M92 0l23 141h196l43 269h-196l22 141h197l55 350h438l-22 -141h-287l-33 -209h287l-22 -141h-287l-43 -269h297l-23 -141h-645z" />
<glyph unicode="&#xa4;" />
<glyph unicode="&#xa5;" horiz-adv-x="1024" d="M20 246l23 143h588l16 103h-588l23 143h588l22 143h-471l58 369h147l-35 -221h324l35 221h159l-80 -512h134l-23 -143h-133l-16 -103h133l-23 -143h-133l-39 -246h-635l23 143h475l16 103h-588z" />
<glyph unicode="&#xa6;" horiz-adv-x="479" d="M35 -287h151l109 697h-152zM184 655h152l108 697h-151z" />
<glyph unicode="&#xa7;" horiz-adv-x="747" d="M90 -27l23 150h100l-8 -51h215l16 112l-301 74l41 266l125 45l-113 27l50 311h419l-34 -217h-101l19 119h-213l-19 -119l299 -72q-4 -29 -18.5 -116.5t-22.5 -143.5l-145 -45l133 -32l-49 -306zM258 365l84 -23l127 45l20 129l-100 27l-110 -49z" />
<glyph unicode="&#xa8;" d="M143 1085h152l41 267h-152zM512 1085h152l41 267h-152z" />
<glyph unicode="&#xa9;" horiz-adv-x="1331" d="M57 -152l213 1340h1004l-213 -1340h-1004zM233 4h693l166 1038h-693zM422 205l102 655h389l-45 -287h-131l23 138h-119l-57 -363h233l-22 -143h-373z" />
<glyph unicode="&#xaa;" d="M96 0l84 532h471l37 226h-475l23 143h634l-143 -901h-631zM268 147h324l37 238h-324z" />
<glyph unicode="&#xab;" horiz-adv-x="1187" d="M102 471l537 463l92 -115l-397 -348l287 -348l-129 -115zM512 471l537 463l92 -115l-398 -348l287 -348l-129 -115z" />
<glyph unicode="&#xad;" horiz-adv-x="655" d="M39 410h553l24 143h-553z" />
<glyph unicode="&#xae;" horiz-adv-x="1331" d="M57 -152l213 1340h1004l-213 -1340h-1004zM233 4h693l166 1038h-693zM422 205l102 655h369l-62 -389h-73l135 -266h-160l-94 266h-45l-41 -266h-131zM610 573h119l27 164h-119z" />
<glyph unicode="&#xb1;" horiz-adv-x="983" d="M-39 -246h881l22 144h-880zM63 410l23 143h348l55 348h164l-55 -348h369l-23 -143h-369l-63 -410h-164l64 410h-349z" />
<glyph unicode="&#xb2;" horiz-adv-x="1024" d="M127 2l25 156l534 395l31 199h-324l-26 -179h-152l51 328h635l-72 -450l-440 -301h393l-24 -150z" />
<glyph unicode="&#xb3;" horiz-adv-x="1024" d="M123 0h635l82 512h-232l264 231l25 156l-631 2l-24 -149h393l-266 -240l-21 -121h309l-36 -241h-322l18 116h-151z" />
<glyph unicode="&#xb4;" d="M152 1085l92 -122l452 266l-92 123z" />
<glyph unicode="&#xb6;" horiz-adv-x="819" d="M154 512h338l-80 -512h153l180 1147h-491zM336 655l55 349h178l-55 -349h-178z" />
<glyph unicode="&#xb8;" d="M356 -348l189 409h151l-168 -409h-172z" />
<glyph unicode="&#xb9;" horiz-adv-x="1024" d="M264 758l23 141l497 2l-143 -901h-152l121 758h-346z" />
<glyph unicode="&#xba;" d="M92 0l144 901h634l-143 -901h-635zM274 143h324l96 611l-323 -2z" />
<glyph unicode="&#xbb;" horiz-adv-x="1187" d="M47 123l92 -115l537 463l-389 463l-129 -115l286 -348zM457 123l92 -115l536 463l-389 463l-129 -115l287 -348z" />
<glyph unicode="&#xbc;" horiz-adv-x="3010" d="M2085 2l25 156l569 743h160l-119 -751h123l-25 -150h-122l-33 -205h-160l33 205zM2306 150h254l70 438zM1886 889l-112 72l-652 -887l115 -72zM264 758l23 141l497 2l-143 -901h-152l121 758h-346z" />
<glyph unicode="&#xbd;" horiz-adv-x="3010" d="M2114 2l25 156l534 395l31 199h-324l-26 -179h-152l51 328h635l-72 -450l-440 -301h393l-24 -150zM1886 889l-112 72l-652 -887l115 -72zM264 758l23 141l497 2l-143 -901h-152l121 758h-346z" />
<glyph unicode="&#xbe;" horiz-adv-x="3010" d="M2085 2l25 156l569 743h160l-119 -751h123l-25 -150h-122l-33 -205h-160l33 205zM2306 150h254l70 438zM1886 889l-112 72l-652 -887l115 -72zM123 0h635l82 512h-232l264 231l25 156l-631 2l-24 -149h393l-266 -240l-21 -121h309l-36 -241h-322l18 116h-151z" />
<glyph unicode="&#xbf;" d="M61 0l111 696h270l29 185h156l-52 -326h-278l-66 -408h486l-25 -147h-631zM498 1024h151l39 246h-151z" />
<glyph unicode="&#xc0;" d="M74 0l180 1147h635l-180 -1147h-160l80 512h-324l-80 -512h-151zM215 1475l129 122l367 -266l-129 -123zM328 655h323l56 349h-324z" />
<glyph unicode="&#xc1;" d="M74 0l180 1147h635l-180 -1147h-160l80 512h-324l-80 -512h-151zM195 1352l92 -123l450 266l-90 123zM328 655h323l56 349h-324z" />
<glyph unicode="&#xc2;" d="M74 0l180 1147h635l-180 -1147h-160l80 512h-324l-80 -512h-151zM197 1327l323 279l234 -279l-127 -106l-140 184l-196 -184zM328 655h323l56 349h-324z" />
<glyph unicode="&#xc3;" d="M74 0l180 1147h635l-180 -1147h-160l80 512h-324l-80 -512h-151zM225 1276h119l29 174h159l-26 -174h405l47 295h-124l-27 -166h-152l27 166h-410zM328 655h323l56 349h-324z" />
<glyph unicode="&#xc4;" d="M74 0l180 1147h635l-180 -1147h-160l80 512h-324l-80 -512h-151zM168 1249h151l43 267h-151zM328 655h323l56 349h-324zM537 1249h151l43 267h-151z" />
<glyph unicode="&#xc5;" d="M74 0l180 1147h635l-180 -1147h-160l80 512h-324l-80 -512h-151zM164 1225l65 417h381l-65 -417h-381zM295 1311h154l38 243l-155 -2zM328 655h323l56 349h-324z" />
<glyph unicode="&#xc6;" horiz-adv-x="1454" d="M74 0l180 1147q373 0 1126 2l-22 -145h-484l-55 -351h484l-23 -143h-483l-56 -354h484l-25 -156h-651l80 510h-324l-80 -510h-151zM328 653h323l56 351h-324z" />
<glyph unicode="&#xc7;" d="M100 0l183 1147h635l-54 -328h-151l28 178h-323l-135 -854h458l-22 -143h-133l-144 -348h-172l160 348h-330z" />
<glyph unicode="&#xc8;" d="M74 0l180 1147l635 2l-23 -145h-483l-39 -248h483l-22 -144h-483l-72 -456h483l-24 -156h-635zM211 1454l129 123l369 -266l-131 -123z" />
<glyph unicode="&#xc9;" d="M74 0l180 1147l635 2l-23 -145h-483l-39 -248h483l-22 -144h-483l-72 -456h483l-24 -156h-635zM190 1331l93 -123l452 267l-92 122z" />
<glyph unicode="&#xca;" d="M74 0l180 1147l635 2l-23 -145h-483l-39 -248h483l-22 -144h-483l-72 -456h483l-24 -156h-635zM197 1327l323 279l234 -279l-127 -106l-140 184l-196 -184z" />
<glyph unicode="&#xcb;" d="M74 0l180 1147l635 2l-23 -145h-483l-39 -248h483l-22 -144h-483l-72 -456h483l-24 -156h-635zM166 1229h151l41 266h-151zM535 1229h151l41 266h-152z" />
<glyph unicode="&#xcc;" horiz-adv-x="649" d="M25 0l22 147h133l135 852h-145l23 148h434l-23 -148h-137l-135 -852h147l-22 -147h-432zM92 1475l129 122l367 -266l-129 -123z" />
<glyph unicode="&#xcd;" horiz-adv-x="649" d="M25 0l22 147h133l135 852h-145l23 148h434l-23 -148h-137l-135 -852h147l-22 -147h-432zM68 1331l92 -123l452 267l-92 122z" />
<glyph unicode="&#xce;" horiz-adv-x="649" d="M25 0l22 147h133l135 852h-145l23 148h434l-23 -148h-137l-135 -852h147l-22 -147h-432zM53 1327l324 279l233 -279l-127 -106l-139 184l-197 -184z" />
<glyph unicode="&#xcf;" horiz-adv-x="649" d="M25 0l22 147h133l135 852h-145l23 148h434l-23 -148h-137l-135 -852h147l-22 -147h-432zM86 1249h152l43 267h-152zM455 1249h151l43 267h-151z" />
<glyph unicode="&#xd1;" d="M74 0h151l113 717l250 -717h121l180 1147h-160l-100 -635l-230 637l-145 -2zM225 1276h119l29 174h159l-26 -174h405l47 295h-124l-27 -166h-152l27 166h-410z" />
<glyph unicode="&#xd2;" d="M74 0l180 1147h635l-180 -1147h-635zM211 1454l129 123l369 -266l-131 -123zM250 156h323l134 845h-324z" />
<glyph unicode="&#xd3;" d="M74 0l180 1147h635l-180 -1147h-635zM190 1331l93 -123l452 267l-92 122zM250 156h323l134 845h-324z" />
<glyph unicode="&#xd4;" d="M74 0l180 1147h635l-180 -1147h-635zM197 1327l323 279l234 -279l-127 -106l-140 184l-196 -184zM250 156h323l134 845h-324z" />
<glyph unicode="&#xd5;" d="M74 0l180 1147h635l-180 -1147h-635zM225 1276h119l29 174h159l-26 -174h405l47 295h-124l-27 -166h-152l27 166h-410zM250 156h323l134 845h-324z" />
<glyph unicode="&#xd6;" d="M74 0l180 1147h635l-180 -1147h-635zM250 156h323l134 845h-324z" />
<glyph unicode="&#xd7;" horiz-adv-x="1026" d="M102 205l295 252l-213 254l133 116l213 -254l295 254l97 -116l-293 -254l213 -252l-135 -117l-213 254l-293 -254z" />
<glyph unicode="&#xd8;" d="M70 0l182 1147h391l62 143h151l-61 -143h92l-182 -1147h-396l-43 -102h-151l43 102h-88zM258 238l324 763h-201zM375 156h194l117 733z" />
<glyph unicode="&#xd9;" d="M74 0l180 1147h152l-158 -1004h323l158 1004h160l-180 -1147h-635zM215 1475l129 122l367 -266l-129 -123z" />
<glyph unicode="&#xda;" d="M74 0l180 1147h152l-158 -1004h323l158 1004h160l-180 -1147h-635zM190 1331l93 -123l452 267l-92 122z" />
<glyph unicode="&#xdb;" d="M74 0l180 1147h152l-158 -1004h323l158 1004h160l-180 -1147h-635zM197 1327l323 279l234 -279l-127 -106l-140 184l-196 -184z" />
<glyph unicode="&#xdc;" d="M74 0l180 1147h152l-158 -1004h323l158 1004h160l-180 -1147h-635z" />
<glyph unicode="&#xdd;" d="M74 0l22 143h475l35 226h-471l123 778h148l-99 -631h324l98 631h160l-180 -1147h-635zM190 1331l93 -123l452 267l-92 122z" />
<glyph unicode="&#xdf;" horiz-adv-x="1339" d="M61 0l205 1290h439l-23 -141h-287l-182 -1149h-152zM438 0l631 2l74 463l-455 108l29 179h323l-28 -179h151l54 328h-635l-76 -471l459 -111l-27 -169h-324l13 75h-152z" />
<glyph unicode="&#xe0;" d="M96 0l84 532h471l37 226h-475l23 143h634l-143 -901h-631zM176 1229l129 123l367 -267l-129 -122zM268 147h324l37 238h-324z" />
<glyph unicode="&#xe1;" d="M96 0l84 532h471l37 226h-475l23 143h634l-143 -901h-631zM152 1085l92 -122l452 266l-92 123zM268 147h324l37 238h-324z" />
<glyph unicode="&#xe2;" d="M96 0l84 532h471l37 226h-475l23 143h634l-143 -901h-631zM158 1081l323 279l234 -279l-127 -106l-139 184l-197 -184zM268 147h324l37 238h-324z" />
<glyph unicode="&#xe3;" d="M96 0l84 532h471l37 226h-475l23 143h634l-143 -901h-631zM211 1092h119l28 174h160l-26 -174h405l47 294h-125l-26 -165h-152l27 165h-410zM268 147h324l37 238h-324z" />
<glyph unicode="&#xe4;" d="M96 0l84 532h471l37 226h-475l23 143h634l-143 -901h-631zM143 1085h152l41 267h-152zM268 147h324l37 238h-324zM512 1085h152l41 267h-152z" />
<glyph unicode="&#xe5;" d="M96 0l84 532h471l37 226h-475l23 143h634l-143 -901h-631zM135 1040l66 418h381l-66 -418h-381zM266 1126h154l37 244l-154 -2zM268 147h324l37 238h-324z" />
<glyph unicode="&#xe6;" horiz-adv-x="1454" d="M96 0l92 573h471l29 185h-475l23 143h1122l-92 -573h-471l-29 -185h475l-22 -143h-1123zM268 147h324l43 279h-324zM819 475h324l43 279h-324z" />
<glyph unicode="&#xe7;" d="M121 0l141 901h635l-51 -328h-152l29 179h-324l-96 -609h459l-23 -143h-135l-141 -348h-172l160 348h-330z" />
<glyph unicode="&#xe8;" d="M92 0l144 901h630l-84 -532h-471l-37 -226h476l-23 -143h-635zM176 1229l129 123l367 -267l-129 -122zM334 516h323l37 238h-323z" />
<glyph unicode="&#xe9;" d="M92 0l144 901h630l-84 -532h-471l-37 -226h476l-23 -143h-635zM152 1085l92 -122l452 266l-92 123zM334 516h323l37 238h-323z" />
<glyph unicode="&#xea;" d="M92 0l144 901h630l-84 -532h-471l-37 -226h476l-23 -143h-635zM158 1081l323 279l234 -279l-127 -106l-139 184l-197 -184zM334 516h323l37 238h-323z" />
<glyph unicode="&#xeb;" d="M92 0l144 901h630l-84 -532h-471l-37 -226h476l-23 -143h-635zM143 1085h152l41 267h-152zM334 516h323l37 238h-323zM512 1085h152l41 267h-152z" />
<glyph unicode="&#xec;" horiz-adv-x="479" d="M-8 1229l129 123l366 -267l-129 -122zM92 0h152l143 901l-151 -2z" />
<glyph unicode="&#xed;" horiz-adv-x="479" d="M-33 1085l92 -122l453 266l-92 123zM92 0h152l143 901l-151 -2z" />
<glyph unicode="&#xee;" horiz-adv-x="479" d="M-47 1081l323 279l234 -279l-127 -106l-139 184l-197 -184zM92 0h152l143 901l-151 -2z" />
<glyph unicode="&#xef;" horiz-adv-x="479" d="M-41 1085h152l41 267h-152zM92 0h152l143 901l-151 -2zM328 1085h151l41 267h-151z" />
<glyph unicode="&#xf1;" d="M92 0h152l121 758h323l-121 -758h160l143 901h-634zM209 1071h119l28 174h160l-27 -174h406l47 295h-125l-26 -166h-152l27 166h-410z" />
<glyph unicode="&#xf2;" d="M92 0l144 901h634l-143 -901h-635zM176 1229l129 123l367 -267l-129 -122zM274 143h324l96 611l-323 -2z" />
<glyph unicode="&#xf3;" d="M92 0l144 901h634l-143 -901h-635zM152 1085l92 -122l452 266l-92 123zM274 143h324l96 611l-323 -2z" />
<glyph unicode="&#xf4;" d="M92 0l144 901h634l-143 -901h-635zM158 1081l323 279l234 -279l-127 -106l-139 184l-197 -184zM274 143h324l96 611l-323 -2z" />
<glyph unicode="&#xf5;" d="M92 0l144 901h634l-143 -901h-635zM209 1071h119l28 174h160l-27 -174h406l47 295h-125l-26 -166h-152l27 166h-410zM274 143h324l96 611l-323 -2z" />
<glyph unicode="&#xf6;" d="M92 0l144 901h634l-143 -901h-635zM143 1085h152l41 267h-152zM274 143h324l96 611l-323 -2zM512 1085h152l41 267h-152z" />
<glyph unicode="&#xf7;" horiz-adv-x="1024" d="M72 389h860l22 143h-860zM369 0h151l33 205h-152zM479 696h152l33 205h-152z" />
<glyph unicode="&#xf8;" d="M90 0l141 901h365l104 246h152l-104 -246h118l-141 -901h-367l-88 -205h-151l88 205h-117zM274 156l256 596h-161zM420 143h176l96 609h-10z" />
<glyph unicode="&#xf9;" d="M92 0l144 901h151l-121 -758h324l121 758h159l-143 -901h-635zM176 1229l129 123l367 -267l-129 -122z" />
<glyph unicode="&#xfa;" d="M92 0l144 901h151l-121 -758h324l121 758h159l-143 -901h-635zM152 1085l92 -122l452 266l-92 123z" />
<glyph unicode="&#xfb;" d="M92 0l144 901h151l-121 -758h324l121 758h159l-143 -901h-635zM158 1081l323 279l234 -279l-127 -106l-139 184l-197 -184z" />
<glyph unicode="&#xfc;" d="M92 0l144 901h151l-121 -758h324l121 758h159l-143 -901h-635zM143 1085h152l41 267h-152zM512 1085h152l41 267h-152z" />
<glyph unicode="&#xfd;" d="M63 -369l23 144h475l35 225h-471l143 901h148l-119 -754h324l118 754h160l-201 -1270h-635zM160 1126l90 -122l452 266l-92 123z" />
<glyph unicode="&#xff;" d="M63 -369l23 144h475l35 225h-471l143 901h148l-119 -754h324l118 754h160l-201 -1270h-635zM143 1085h152l41 267h-152zM512 1085h152l41 267h-152z" />
<glyph unicode="&#x152;" horiz-adv-x="1443" d="M74 0l180 1147q362 0 1116 2l-22 -145h-482l-39 -248h482l-23 -144h-481l-72 -456h481l-24 -156h-1116zM250 156h323l134 845h-324z" />
<glyph unicode="&#x153;" horiz-adv-x="1413" d="M92 0l144 901h1081l-84 -532h-471l-37 -226h475l-22 -143h-1086zM274 143h324l96 611l-323 -2zM784 516h324l37 238h-324z" />
<glyph unicode="&#x178;" d="M74 0l22 143h475l35 226h-471l123 778h148l-99 -631h324l98 631h160l-180 -1147h-635zM166 1229h151l41 266h-151zM535 1229h151l41 266h-152z" />
<glyph unicode="&#x2c6;" d="M158 1081l323 279l234 -279l-127 -106l-139 184l-197 -184z" />
<glyph unicode="&#x2dc;" horiz-adv-x="409" d="M-398 123h150l35 217h200l-35 -217h508l58 368h-156l-33 -206h-190l33 206h-512z" />
<glyph unicode="&#x2000;" horiz-adv-x="821" />
<glyph unicode="&#x2001;" horiz-adv-x="1642" />
<glyph unicode="&#x2002;" horiz-adv-x="821" />
<glyph unicode="&#x2003;" horiz-adv-x="1642" />
<glyph unicode="&#x2004;" horiz-adv-x="546" />
<glyph unicode="&#x2005;" horiz-adv-x="409" />
<glyph unicode="&#x2006;" horiz-adv-x="272" />
<glyph unicode="&#x2007;" horiz-adv-x="272" />
<glyph unicode="&#x2008;" horiz-adv-x="204" />
<glyph unicode="&#x2009;" horiz-adv-x="327" />
<glyph unicode="&#x200a;" horiz-adv-x="90" />
<glyph unicode="&#x2010;" horiz-adv-x="655" d="M39 410h553l24 143h-553z" />
<glyph unicode="&#x2011;" horiz-adv-x="655" d="M39 410h553l24 143h-553z" />
<glyph unicode="&#x2012;" horiz-adv-x="655" d="M39 410h553l24 143h-553z" />
<glyph unicode="&#x2013;" horiz-adv-x="1024" d="M-12 410h1024l24 143h-1024z" />
<glyph unicode="&#x2014;" horiz-adv-x="2048" d="M-12 410h2048l24 143h-2048z" />
<glyph unicode="&#x2018;" horiz-adv-x="274" d="M8 860l189 410h151l-168 -410h-172z" />
<glyph unicode="&#x2019;" horiz-adv-x="253" d="M-74 860l148 410h172l-168 -410h-152z" />
<glyph unicode="&#x201a;" horiz-adv-x="253" d="M-74 -164l148 410h172l-168 -410h-152z" />
<glyph unicode="&#x201c;" horiz-adv-x="520" d="M8 860l189 410h151l-168 -410h-172zM254 860l188 410h152l-168 -410h-172z" />
<glyph unicode="&#x201d;" horiz-adv-x="499" d="M-74 860l148 410h172l-168 -410h-152zM172 860l147 410h173l-168 -410h-152z" />
<glyph unicode="&#x201e;" horiz-adv-x="499" d="M-74 -164l148 410h172l-168 -410h-152zM172 -164l147 410h173l-168 -410h-152z" />
<glyph unicode="&#x2022;" horiz-adv-x="819" d="M166 410l78 491h409l-78 -491h-409z" />
<glyph unicode="&#x2026;" horiz-adv-x="1437" d="M1101 0h152l41 246h-152zM622 0h152l41 246h-152zM143 0h152l41 246h-152z" />
<glyph unicode="&#x202f;" horiz-adv-x="327" />
<glyph unicode="&#x2039;" horiz-adv-x="778" d="M102 471l537 463l92 -115l-397 -348l287 -348l-129 -115z" />
<glyph unicode="&#x203a;" horiz-adv-x="778" d="M47 123l92 -115l537 463l-389 463l-129 -115l286 -348z" />
<glyph unicode="&#x2044;" d="M862 889l-112 72l-652 -887l115 -72z" />
<glyph unicode="&#x205f;" horiz-adv-x="409" />
<glyph unicode="&#x2122;" horiz-adv-x="1433" d="M63 1020l25 147h111l24 160h152l-25 -160h119l-25 -147h-118l-39 -246h119l-23 -147h-270l61 393h-111zM535 627l86 540h725l-86 -540h-158l61 393h-125l-61 -393h-160l62 393h-131l-62 -393h-151z" />
<glyph unicode="&#xe000;" horiz-adv-x="900" d="M0 900h900v-900h-900v900z" />
<glyph unicode="&#xfb01;" horiz-adv-x="1298" d="M182 758l23 141h196l62 391h438l-22 -141h-287l-39 -250h287l-23 -141h-287l-120 -758h-152l121 758h-197zM877 0h151l141 901l-151 -2zM1049 1085h151l41 267h-151z" />
<glyph unicode="&#xfb02;" horiz-adv-x="1298" d="M182 758l23 141h196l62 391h438l-22 -141h-287l-39 -250h287l-23 -141h-287l-120 -758h-152l121 758h-197zM877 0h151l213 1352h-151z" />
<glyph unicode="&#xfb03;" horiz-adv-x="2404" d="M1982 0h152l141 901l-151 -2zM2154 1085h152l41 267h-152zM1145 758l23 141h196l62 391h438l-22 -141h-287l-39 -250h287l-23 -141h-287l-120 -758h-152l121 758h-197zM182 758l23 141h196l62 391h438l-22 -141h-287l-39 -250h287l-23 -141h-287l-120 -758h-152l121 758 h-197z" />
<glyph unicode="&#xfb04;" horiz-adv-x="2404" d="M1982 0h152l213 1352h-152zM1145 758l23 141h196l62 391h438l-22 -141h-287l-39 -250h287l-23 -141h-287l-120 -758h-152l121 758h-197zM182 758l23 141h196l62 391h438l-22 -141h-287l-39 -250h287l-23 -141h-287l-120 -758h-152l121 758h-197z" />
</font>
</defs>
</svg>
